<?xml version="1.0" encoding="UTF-8"?>
<svg version="1.1" viewBox="0 0 2000 2000" width="500" height="500" xmlns="http://www.w3.org/2000/svg">
<path transform="translate(170,400)" d="m0 0h1662l21 3 19 5 20 8 17 9 16 11 11 9 12 11 10 11 12 17 9 16 7 16 7 22 3 16 1 15v865l-2 19-5 20-9 22-9 17-12 17-11 13-10 10-11 9-14 10-18 10-16 7-16 5-25 5-7 1-19 1h-1613l-32-1-19-3-21-5-16-6-16-8-16-10-13-10-15-14-12-13-14-21-8-15-8-21-5-21-2-17-1-51v-527l1-295 2-18 5-19 8-20 8-15 7-11 10-13 9-10 11-11 14-11 15-10 17-9 21-8 23-5z" fill="#219EF3"/>
<path transform="translate(302,812)" d="m0 0h17l14 3 12 5 10 9 7 14 3 11 2 18v15l4-4 7-12 12-16 9-11 14-13 14-9 10-5 13-4 6-1h32l16 3 14 5 10 6 8 6 9 12 8 16 5 19 1 8v33l-4 25-7 28-9 27-19 49-7 19-4 18v17l3 10 6 5 6-1 11-6 10-8 12-11 12-12 9-11 9-10 5-36 7-29 7-21 8-16 6-10 4-5 10-7 4-1h8l8 4 7 9 5 11 3 11v23l-4 24-6 28-9 37-2 11v15l3 6 9 5 9-1 10-6 13-12 15-14 12-13 6-7 2-11 2-19 5-25 7-23 9-20 9-16 7-10 7-6 4-2h8l9 4 9 8 9 15 4 8 4-2 8-8 10-7 13-6 8-2h21l14 4 12 7 10 10 6 12 2 8v9h3l2-4 9-9 14-10 16-7 11-3 18-1 16 2 11 4 8 5 5 5 6 8 4 11 1 5v20l-2 17-7 34-9 36-1 9 2 2h7l10-6 11-10 8-7 19-19 8-10 4-28 6-28 9-30 12-29 2-5-10-3-11-6-9-7-5-8v-8l3-3 11 1 22 6 6 2h6l11-20 13-19 13-16 7-8 12-12 13-10 13-8 12-6 14-4 7-1h18l17 3 10 4 8 4 10 9 6 8 5 11 2 12v8l-3 14-5 12-6 9-10 11-13 9-16 8-19 7-25 6-25 4-22 3-4 9-7 22-6 25-4 27-1 12v40l3 14 5 13 7 8 11 5 4 1h8l8-4 7-7 5-10 2-8v-20l-4-11-7-11-10-11v-2h-2l-2-3v-7l6-13 7-11 9-10 9-6 2-1h11l10 5 7 9 6 12 6 21 7 28 6 16 6 8 9 4 9-2 10-8 8-10 12-17 6-7 11-94 2-11 5-5 11-5 8-2 19-1 10 2 6 4 6 9 3 14v27l-5 25-12 45-4 20-1 9v16l3 6 5 4 7 3h10l9-4 6-4 9-10 6-10 8-17 9-27 6-28 1-8v-52l3-8 7-8 11-6 12-3h23l6 3 4 6 2 8v28l-3 23-8 42-5 26-3 19-1 9v12l2 3h7l8-4 13-11 7-8 7-16 6-9 5-6 8-5 3-1h7l6 3 4 5 11 29 6 12 7 9 11 8 13 5 12 3 18 1-8-16-7-10-9-10-7-8-23-23-12-16-7-15-3-17 1-15 4-15 9-16 13-13 11-7 10-5 12-4 11-2h28l18 4 12 6 9 8 6 11 2 7v21l-4 13-6 11-11 12-10 8-13 6h-2l3 5 10 10 9 11 9 14 4 11 1 5v13l-4 16-6 11-9 10-9 7-14 7-21 6-15 2h-36l-18-3-16-5-14-7-10-9-4-5-6 1-10 6-16 8-17 8-14 5-13-1-11-4-7-6-5-10-3-11-1-7-3-1-2 5-11 12-5 5-7 6-12 7-12 4-5 1h-22l-18-3-14-4-14-7-10-10-8-16-5 1-8 3-5 1h-11l-16-3-17-6-2 7-8 11-7 8-13 9-11 5-14 4-14 2h-24l-21-4-16-6-10-5-9-7-7-6-9-14-4-9-1-7h-2l-2 4-13 14-5 5-10 9-10 7-12 7-16 6-14 3h-16l-11-4-8-8-5-11-3-12-2-20v-16l3-25 6-37 1-9v-9l-3-6-8-5h-10l-8 4-6 5-11 15-8 14-8 19-5 16v16l5 23 4 16v10l-6 9-11 8-16 8-12 5-8 1-8-3-6-7-3-8-2-13v-50l3-45 3-36v-14l-4-7-6-3h-7l-10 5-7 7-10 14-10 18-8 17-5 17-1 6v19l3 17 6 24v11l-6 9-9 7-17 9-13 5h-11l-7-4-4-5-3-11-2-12-1-22-21 21-15 11-14 8-17 6-11 2h-18l-10-3-11-7-7-10-4-8-5-16-2-12-3 1-9 11-13 13-15 11-15 9-17 7-16 4h-23l-14-4-8-5-8-9-5-12-2-10v-22l4-26 8-31 12-39 12-36 9-30 4-20v-23l-4-12-6-10-7-5-7-2h-13l-14 5-11 7-9 8h-2l-2 4-9 10-9 13-8 13-7 12-11 24-10 27-8 24-9 34-2 10v8l5 24 3 19v21l-3 10-6 9-8 7-21 10-9 3h-12l-8-4-6-7-4-12-1-5v-41l5-43 8-51 16-87 4-23 1-11-2-15-6-12-6-5-2-1h-8l-10 5-17 12-12 6h-7l-4-4-1-3v-11l3-13 7-12 10-10 14-9 11-5 13-4z" fill="#FEFFFE"/>
<path transform="translate(673,788)" d="m0 0 9 1 8 5 7 7 8 14 5 13 2 12-1 13-4 11-6 9-6 7-11 7-12 5-9 2h-8l-4-5-5-11-4-18v-17l3-17 6-15 6-10 9-10z" fill="#FEFFFE"/>
<path transform="translate(1262,861)" d="m0 0h7l7 6 2 5v11l-4 9-6 8-8 7-14 8-19 8-21 5h-7l2-5 16-24 9-11 11-12 10-8 12-6z" fill="#219EF3"/>
<path transform="translate(1694,980)" d="m0 0h11l7 4 4 5 1 2v9l-7 14-9 12-5 1-10-13-5-8-5-12-1-7 3-3z" fill="#219EF3"/>
</svg>
